<svg width="293" height="71" viewBox="0 0 293 71" fill="none" xmlns="http://www.w3.org/2000/svg">
<path fill-rule="evenodd" clip-rule="evenodd" d="M37.619 4.83336C36.8622 4.77749 36.1035 4.7495 35.3446 4.74946V0.333344C36.2126 0.333767 37.0802 0.366174 37.9458 0.430498L37.619 4.83336ZM46.4694 6.82062C45.0537 6.27436 43.5998 5.83303 42.1193 5.5002L43.0865 1.19007C44.7779 1.56986 46.4429 2.07329 48.0593 2.70038L46.4694 6.82062ZM52.5198 9.95606C51.8884 9.53498 51.2417 9.13726 50.581 8.76371L52.7583 4.92169C54.2683 5.77724 55.7134 6.74255 57.0819 7.80982L54.3659 11.2941C53.7671 10.8271 53.1513 10.3822 52.5198 9.96047V9.95606ZM60.6194 17.8609C59.7458 16.6199 58.7819 15.4449 57.7355 14.3457L60.933 11.2986C62.1254 12.5571 63.2295 13.9041 64.232 15.3172L60.6194 17.8609ZM63.9052 23.8315C63.6153 23.1313 63.3001 22.442 62.9601 21.7647L66.9039 19.7775C67.6838 21.3279 68.3481 22.9339 68.8912 24.5822L64.6957 25.9645C64.4584 25.244 64.1947 24.5326 63.9052 23.8315ZM66.2458 34.9027C66.2101 33.385 66.0625 31.8721 65.8042 30.3762L70.1543 29.6254C70.4502 31.33 70.6225 33.0612 70.6666 34.7923L66.2503 34.9027H66.2458ZM65.6673 41.6947C65.813 40.9439 65.9323 40.1976 66.025 39.4425L70.4105 39.9856C70.1983 41.7086 69.8588 43.4135 69.3947 45.0862L65.1373 43.9071C65.3405 43.1785 65.5172 42.441 65.6673 41.6947ZM61.4629 52.2006C62.2755 50.9199 62.991 49.5774 63.6093 48.1908L67.6458 49.9793C66.9392 51.5691 66.1222 53.0971 65.1948 54.5632L61.4629 52.2006ZM57.2056 57.522C57.7444 56.9833 58.2611 56.4268 58.7513 55.8527L62.0989 58.7365C61.532 59.3937 60.9413 60.0301 60.3279 60.6442L57.2056 57.522Z" fill="#4E84D5"/>
<path fill-rule="evenodd" clip-rule="evenodd" d="M35.3447 4.74946C30.2609 4.74983 25.2557 6.00384 20.7723 8.40043C16.289 10.797 12.4659 14.2622 9.64171 18.4891C6.8175 22.716 5.07933 27.5741 4.58117 32.6331C4.083 37.6921 4.84022 42.7959 6.78574 47.4924C8.73125 52.1889 11.805 56.3331 15.7348 59.5581C19.6646 62.783 24.3291 64.9891 29.3151 65.981C34.3012 66.9728 39.4549 66.7198 44.3198 65.2443C49.1847 63.7688 53.6107 61.1164 57.2056 57.522L60.328 60.6442C56.2196 64.7546 51.1607 67.7883 45.5996 69.4764C40.0385 71.1646 34.1468 71.455 28.4466 70.3221C22.7464 69.1891 17.4136 66.6677 12.9208 62.9813C8.42802 59.295 4.9139 54.5574 2.68982 49.1883C0.465737 43.8193 -0.399636 37.9846 0.170374 32.2012C0.740383 26.4178 2.72818 20.8643 5.95763 16.0327C9.18708 11.2011 13.5585 7.24064 18.6845 4.50217C23.8105 1.7637 29.5329 0.331803 35.3447 0.333345V4.74946Z" fill="#2B3C54"/>
<path fill-rule="evenodd" clip-rule="evenodd" d="M33.1364 13.5817C33.722 13.5817 34.2837 13.8143 34.6978 14.2284C35.1119 14.6425 35.3446 15.2041 35.3446 15.7897V38.7977L49.6889 46.994C50.1826 47.2918 50.5403 47.7709 50.6854 48.3289C50.8305 48.8869 50.7516 49.4796 50.4655 49.9802C50.1794 50.4808 49.7089 50.8496 49.1545 51.0079C48.6 51.1662 48.0056 51.1013 47.4984 50.8272L32.0411 41.9949C31.7032 41.8019 31.4222 41.523 31.2268 41.1864C31.0314 40.8498 30.9283 40.4676 30.9282 40.0784V15.7897C30.9282 15.2041 31.1609 14.6425 31.575 14.2284C31.9891 13.8143 32.5508 13.5817 33.1364 13.5817Z" fill="#4E84D5"/>
<path d="M91.088 51.9173H93.152C93.152 53.368 92.7893 54.4827 92.064 55.2613C91.3387 56.04 90.3147 56.4293 88.992 56.4293C86.08 56.4293 84.624 54.7173 84.624 51.2933V50.3333C84.624 47.6347 85.3707 45.944 86.864 45.2613C87.4507 44.984 88.16 44.8453 88.992 44.8453C90.208 44.8453 91.1947 45.1813 91.952 45.8533C92.72 46.5147 93.104 47.4747 93.104 48.7333H91.024C90.9067 48.104 90.6987 47.6293 90.4 47.3093C90.1013 46.9893 89.632 46.8293 88.992 46.8293C88.2453 46.8293 87.6907 47.064 87.328 47.5333C87.072 47.864 86.9227 48.4293 86.88 49.2293C86.8587 49.4853 86.848 49.832 86.848 50.2693V51.2613C86.848 52.488 87.0187 53.3253 87.36 53.7733C87.712 54.2213 88.256 54.4453 88.992 54.4453C89.7387 54.4453 90.2507 54.2427 90.528 53.8373C90.816 53.4213 91.0027 52.7813 91.088 51.9173ZM106.887 56.3333H104.567L103.927 54.3653H100.103L99.4787 56.3333H97.1587L100.807 45.9013C100.967 45.5387 101.143 45.288 101.335 45.1493C101.537 45.0107 101.783 44.9413 102.071 44.9413C102.359 44.9413 102.588 45.0053 102.759 45.1333C102.94 45.2613 103.1 45.5173 103.239 45.9013L106.887 56.3333ZM103.415 52.4933L102.071 47.9813L100.663 52.4933H103.415ZM118.674 56.3333H115.282C114.002 56.3333 113.074 56.088 112.498 55.5973C111.933 55.096 111.65 54.2853 111.65 53.1653V44.9413H113.874V53.1653C113.874 53.6133 113.975 53.9227 114.178 54.0933C114.381 54.264 114.749 54.3493 115.282 54.3493H118.674V56.3333ZM131.151 56.3333H127.119C125.839 56.3333 124.937 56.1147 124.415 55.6773C123.903 55.2293 123.647 54.4453 123.647 53.3253V44.9413H131.151V46.9253H125.871V49.5973H129.567L129.407 51.5813H125.871V53.1653C125.871 53.6133 125.972 53.9227 126.175 54.0933C126.377 54.264 126.745 54.3493 127.279 54.3493H131.151V56.3333ZM145.414 44.9413V55.1813C145.414 55.5333 145.308 55.8373 145.094 56.0933C144.881 56.3387 144.63 56.4613 144.342 56.4613C143.606 56.4613 143.004 56.0347 142.534 55.1813L138.598 49.0213V56.3333H136.374V44.9413H138.518L143.19 52.3973V44.9413H145.414ZM159.514 50.5893L159.53 51.8213C159.487 52.6 159.391 53.256 159.242 53.7893C159.092 54.3227 158.799 54.808 158.362 55.2453C157.636 55.9707 156.58 56.3333 155.194 56.3333C153.562 56.3333 152.442 56.12 151.834 55.6933C151.226 55.256 150.922 54.472 150.922 53.3413V44.9413H155.354C156.634 44.9413 157.636 45.304 158.362 46.0293C158.948 46.616 159.295 47.3307 159.402 48.1733C159.476 48.7707 159.514 49.576 159.514 50.5893ZM156.81 53.6453C157.012 53.4 157.14 53.064 157.194 52.6373C157.258 52.2 157.29 51.5227 157.29 50.6053C157.29 49.688 157.258 49.0267 157.194 48.6213C157.14 48.2053 157.012 47.8747 156.81 47.6293C156.426 47.16 155.871 46.9253 155.146 46.9253H153.146V53.2293C153.146 53.656 153.29 53.9493 153.578 54.1093C153.866 54.2693 154.378 54.3493 155.114 54.3493C155.86 54.3493 156.426 54.1147 156.81 53.6453ZM173.309 56.3333H170.989L170.349 54.3653H166.525L165.901 56.3333H163.581L167.229 45.9013C167.389 45.5387 167.565 45.288 167.757 45.1493C167.959 45.0107 168.205 44.9413 168.493 44.9413C168.781 44.9413 169.01 45.0053 169.181 45.1333C169.362 45.2613 169.522 45.5173 169.661 45.9013L173.309 56.3333ZM169.837 52.4933L168.493 47.9813L167.085 52.4933H169.837ZM186.696 56.3333H184.12L181.896 52.1093H180.296V56.3333H178.072V47.3893C178.072 46.536 178.269 45.9173 178.664 45.5333C179.058 45.1387 179.72 44.9413 180.648 44.9413H182.536C183.666 44.9413 184.562 45.288 185.224 45.9813C185.896 46.664 186.232 47.5333 186.232 48.5893C186.232 49.3573 186.029 50.024 185.624 50.5893C185.229 51.144 184.738 51.528 184.152 51.7413L186.696 56.3333ZM182.392 50.2533C182.861 50.2533 183.245 50.0933 183.544 49.7733C183.853 49.4427 184.008 49.0373 184.008 48.5573C184.008 48.0667 183.858 47.672 183.56 47.3733C183.272 47.0747 182.882 46.9253 182.392 46.9253H181.288C180.626 46.9253 180.296 47.2613 180.296 47.9333V50.2533H182.392ZM206.915 53.0533C206.915 54.1093 206.627 54.92 206.051 55.4853C205.486 56.0507 204.691 56.3333 203.667 56.3333H202.131C200.873 56.3333 199.977 56.1147 199.443 55.6773C198.921 55.24 198.659 54.4827 198.659 53.4053V44.9413H203.475C204.563 44.9413 205.379 45.2133 205.923 45.7573C206.478 46.3013 206.755 47.0693 206.755 48.0613C206.755 48.6373 206.606 49.128 206.307 49.5333C206.019 49.9387 205.699 50.2267 205.347 50.3973C206.393 50.888 206.915 51.7733 206.915 53.0533ZM203.299 49.3893C204.121 49.3893 204.531 48.9787 204.531 48.1573C204.531 47.336 204.121 46.9253 203.299 46.9253H200.883V49.3893H203.299ZM204.691 52.9413C204.691 52.4293 204.601 52.0453 204.419 51.7893C204.238 51.5227 203.913 51.3893 203.443 51.3893H200.883V53.1813C200.883 53.6187 200.99 53.9227 201.203 54.0933C201.427 54.264 201.79 54.3493 202.291 54.3493H203.443C204.275 54.3493 204.691 53.88 204.691 52.9413ZM219.415 56.3333H216.023C214.743 56.3333 213.815 56.088 213.239 55.5973C212.673 55.096 212.391 54.2853 212.391 53.1653V44.9413H214.615V53.1653C214.615 53.6133 214.716 53.9227 214.919 54.0933C215.121 54.264 215.489 54.3493 216.023 54.3493H219.415V56.3333ZM232.739 50.1093V50.9733C232.739 52.8827 232.377 54.2693 231.651 55.1333C230.937 55.9973 229.785 56.4293 228.195 56.4293C226.606 56.4293 225.454 55.9973 224.739 55.1333C224.035 54.2693 223.683 52.8667 223.683 50.9253V50.0933C223.683 48.3227 224.041 47.0053 224.755 46.1413C225.481 45.2773 226.622 44.8453 228.179 44.8453C229.747 44.8453 230.899 45.2827 231.635 46.1573C232.371 47.032 232.739 48.3493 232.739 50.1093ZM230.515 50.9253V50.3333C230.515 49.3093 230.387 48.4933 230.131 47.8853C229.833 47.1813 229.193 46.8293 228.211 46.8293C227.219 46.8293 226.574 47.1813 226.275 47.8853C226.03 48.4613 225.907 49.2773 225.907 50.3333V50.9253C225.907 52.3013 226.099 53.2293 226.483 53.7093C226.633 53.912 226.851 54.088 227.139 54.2373C227.438 54.376 227.79 54.4453 228.195 54.4453C228.611 54.4453 228.963 54.376 229.251 54.2373C229.539 54.0987 229.763 53.928 229.923 53.7253C230.083 53.5227 230.206 53.256 230.291 52.9253C230.441 52.4027 230.515 51.736 230.515 50.9253ZM243.644 51.9173H245.708C245.708 53.368 245.346 54.4827 244.62 55.2613C243.895 56.04 242.871 56.4293 241.548 56.4293C238.636 56.4293 237.18 54.7173 237.18 51.2933V50.3333C237.18 47.6347 237.927 45.944 239.42 45.2613C240.007 44.984 240.716 44.8453 241.548 44.8453C242.764 44.8453 243.751 45.1813 244.508 45.8533C245.276 46.5147 245.66 47.4747 245.66 48.7333H243.58C243.463 48.104 243.255 47.6293 242.956 47.3093C242.658 46.9893 242.188 46.8293 241.548 46.8293C240.802 46.8293 240.247 47.064 239.884 47.5333C239.628 47.864 239.479 48.4293 239.436 49.2293C239.415 49.4853 239.404 49.832 239.404 50.2693V51.2613C239.404 52.488 239.575 53.3253 239.916 53.7733C240.268 54.2213 240.812 54.4453 241.548 54.4453C242.295 54.4453 242.807 54.2427 243.084 53.8373C243.372 53.4213 243.559 52.7813 243.644 51.9173ZM255.939 50.3013L259.859 56.3333H257.267L254.579 52.0293L253.027 54.1093V56.3333H250.803V44.9413H253.027V51.3093L257.331 44.9413H259.571L255.939 50.3013ZM272.148 56.3333H268.116C266.836 56.3333 265.934 56.1147 265.412 55.6773C264.9 55.2293 264.644 54.4453 264.644 53.3253V44.9413H272.148V46.9253H266.868V49.5973H270.564L270.404 51.5813H266.868V53.1653C266.868 53.6133 266.969 53.9227 267.172 54.0933C267.374 54.264 267.742 54.3493 268.276 54.3493H272.148V56.3333ZM286.155 56.3333H283.579L281.355 52.1093H279.755V56.3333H277.531V47.3893C277.531 46.536 277.728 45.9173 278.123 45.5333C278.518 45.1387 279.179 44.9413 280.107 44.9413H281.995C283.126 44.9413 284.022 45.288 284.683 45.9813C285.355 46.664 285.691 47.5333 285.691 48.5893C285.691 49.3573 285.488 50.024 285.083 50.5893C284.688 51.144 284.198 51.528 283.611 51.7413L286.155 56.3333ZM281.851 50.2533C282.32 50.2533 282.704 50.0933 283.003 49.7733C283.312 49.4427 283.467 49.0373 283.467 48.5573C283.467 48.0667 283.318 47.672 283.019 47.3733C282.731 47.0747 282.342 46.9253 281.851 46.9253H280.747C280.086 46.9253 279.755 47.2613 279.755 47.9333V50.2533H281.851Z" fill="#2B3C54"/>
<path d="M104.269 34H99.6294L98.3494 30.064H90.7014L89.4534 34H84.8134L92.1094 13.136C92.4294 12.4107 92.7814 11.9093 93.1654 11.632C93.5707 11.3547 94.0614 11.216 94.6374 11.216C95.2134 11.216 95.672 11.344 96.0134 11.6C96.376 11.856 96.696 12.368 96.9734 13.136L104.269 34ZM97.3254 26.32L94.6374 17.296L91.8214 26.32H97.3254ZM105.988 23.28V20.464C105.988 17.4987 106.766 15.184 108.324 13.52C109.881 11.856 112.036 11.024 114.788 11.024C117.54 11.024 119.748 11.856 121.412 13.52C122.585 14.6933 123.172 16.4533 123.172 18.8H119.012C119.012 16.2613 117.657 14.992 114.948 14.992C114.137 14.992 113.444 15.152 112.868 15.472C112.313 15.7707 111.897 16.1227 111.62 16.528C111.342 16.9333 111.129 17.5307 110.98 18.32C110.83 19.1093 110.745 19.7707 110.724 20.304C110.702 20.8373 110.692 21.552 110.692 22.448C110.692 23.344 110.692 23.952 110.692 24.272C110.713 24.5707 110.745 25.072 110.788 25.776C110.852 26.4587 110.937 26.9493 111.044 27.248C111.172 27.5467 111.342 27.9307 111.556 28.4C111.79 28.8693 112.078 29.2 112.42 29.392C113.294 29.9467 114.286 30.224 115.396 30.224C117.252 30.224 118.564 29.4347 119.332 27.856V26.32H116.58V22.608H123.14V29.488C122.478 31.0453 121.433 32.2187 120.004 33.008C118.574 33.7973 116.953 34.192 115.14 34.192C111.918 34.192 109.582 33.296 108.132 31.504C106.702 29.6907 105.988 26.9493 105.988 23.28ZM142.779 34H134.715C132.155 34 130.352 33.5627 129.307 32.688C128.283 31.792 127.771 30.224 127.771 27.984V11.216H142.779V15.184H132.219V20.528H139.611L139.291 24.496H132.219V27.664C132.219 28.56 132.421 29.1787 132.827 29.52C133.232 29.8613 133.968 30.032 135.035 30.032H142.779V34ZM164.906 11.216V31.696C164.906 32.4 164.692 33.008 164.266 33.52C163.839 34.0107 163.338 34.256 162.762 34.256C161.29 34.256 160.084 33.4027 159.146 31.696L151.274 19.376V34H146.826V11.216H151.114L160.458 26.128V11.216H164.906ZM186.705 22.512L186.737 24.976C186.651 26.5333 186.459 27.8453 186.161 28.912C185.862 29.9787 185.275 30.9493 184.401 31.824C182.95 33.2747 180.838 34 178.065 34C174.801 34 172.561 33.5733 171.345 32.72C170.129 31.8453 169.521 30.2773 169.521 28.016V11.216H178.385C180.945 11.216 182.95 11.9413 184.401 13.392C185.574 14.5653 186.267 15.9947 186.481 17.68C186.63 18.8747 186.705 20.4853 186.705 22.512ZM181.297 28.624C181.702 28.1333 181.958 27.4613 182.065 26.608C182.193 25.7333 182.257 24.3787 182.257 22.544C182.257 20.7093 182.193 19.3867 182.065 18.576C181.958 17.744 181.702 17.0827 181.297 16.592C180.529 15.6533 179.419 15.184 177.969 15.184H173.969V27.792C173.969 28.6453 174.257 29.232 174.833 29.552C175.409 29.872 176.433 30.032 177.905 30.032C179.398 30.032 180.529 29.5627 181.297 28.624ZM207.894 34H203.254L201.974 30.064H194.326L193.078 34H188.438L195.734 13.136C196.054 12.4107 196.406 11.9093 196.79 11.632C197.196 11.3547 197.686 11.216 198.262 11.216C198.838 11.216 199.297 11.344 199.638 11.6C200.001 11.856 200.321 12.368 200.598 13.136L207.894 34ZM200.95 26.32L198.262 17.296L195.446 26.32H200.95ZM228.269 34H223.117L218.669 25.552H215.469V34H211.021V16.112C211.021 14.4053 211.415 13.168 212.205 12.4C212.994 11.6107 214.317 11.216 216.173 11.216H219.949C222.21 11.216 224.002 11.9093 225.325 13.296C226.669 14.6613 227.341 16.4 227.341 18.512C227.341 20.048 226.935 21.3813 226.125 22.512C225.335 23.6213 224.354 24.3893 223.181 24.816L228.269 34ZM219.661 21.84C220.599 21.84 221.367 21.52 221.965 20.88C222.583 20.2187 222.893 19.408 222.893 18.448C222.893 17.4667 222.594 16.6773 221.997 16.08C221.421 15.4827 220.642 15.184 219.661 15.184H217.453C216.13 15.184 215.469 15.856 215.469 17.2V21.84H219.661ZM236.022 29.712C236.363 30.032 236.534 30.7253 236.534 31.792C236.534 32.8587 236.363 33.5627 236.022 33.904C235.702 34.2453 235.009 34.416 233.942 34.416C232.875 34.416 232.171 34.2453 231.83 33.904C231.489 33.5627 231.318 32.8587 231.318 31.792C231.318 30.7253 231.489 30.032 231.83 29.712C232.171 29.3707 232.875 29.2 233.942 29.2C235.009 29.2 235.702 29.3707 236.022 29.712ZM258.228 20.4L254.132 29.04C253.534 30.192 252.788 30.768 251.892 30.768C251.017 30.768 250.281 30.16 249.684 28.944L245.524 20.4V34H241.076V11.216H245.46L251.892 24.368L258.292 11.216H262.676V34H258.228V20.4ZM282.341 34H274.277C271.717 34 269.914 33.5627 268.869 32.688C267.845 31.792 267.333 30.224 267.333 27.984V11.216H282.341V15.184H271.781V20.528H279.173L278.853 24.496H271.781V27.664C271.781 28.56 271.984 29.1787 272.389 29.52C272.794 29.8613 273.53 30.032 274.597 30.032H282.341V34Z" fill="#2B3C54"/>
</svg>
